# AST/ASF file generated using VICON BodyLanguage
# -----------------------------------------------
:version 1.10
:name VICON
:units
  mass 1.0
  length 0.45
  angle deg
:documentation
   .ast/.asf automatically generated from VICON data using
   VICON BodyBuilder and BodyLanguage model FoxedUp or BRILLIANT.MOD
:root
   order TX TY TZ RX RY RZ
   axis XYZ
   position 0 0 0  
   orientation 0 0 0 
:bonedata
  begin
     id 1 
     name lhipjoint
     direction 0.584852 -0.759097 0.285867 
     length 2.43633 
     axis 0 0 0  XYZ
  end
  begin
     id 2 
     name lfemur
     direction 0.34202 -0.939693 0  
     length 7.14704  
     axis 0 0 20  XYZ
    dof rx ry rz
    limits (-160.0 20.0)
           (-70.0 70.0)
           (-60.0 70.0)
  end
  begin
     id 3 
     name ltibia
     direction 0.342022 -0.939692 0   
     length 7.68483   
     axis 0 0 20   XYZ
    dof rx
    limits (-10.0 170.0)
  end
  begin
     id 4 
     name lfoot
     direction 0.0999605 -0.274639 0.956337   
     length 2.40452   
     axis -90 7.62852e-016 20   XYZ
    dof rx rz
    limits (-45.0 90.0)
           (-70.0 20.0)
  end
  begin
     id 5 
     name ltoes
     direction 1.53468e-011 -4.21881e-011 1   
     length 1.19837   
     axis -90 7.62852e-016 20   XYZ
    dof rx
    limits (-90.0 20.0)
  end
  begin
     id 6 
     name rhipjoint
     direction -0.569886 -0.769002 0.289597   
     length 2.40495  
     axis 0 0 0  XYZ 
  end
  begin
     id 7 
     name rfemur
     direction -0.34202 -0.939693 0   
     length 7.45086   
     axis 0 0 -20   XYZ
    dof rx ry rz
    limits (-160.0 20.0)
           (-70.0 70.0)
           (-70.0 60.0)
  end
  begin
     id 8 
     name rtibia
     direction -0.34202 -0.939693 0   
     length 7.76831   
     axis 0 0 -20   XYZ
    dof rx
    limits (-10.0 170.0)
 end
 begin
     id 9 
     name rfoot
     direction -0.0798572 -0.219406 0.97236   
     length 2.35911  
     axis -90 -7.62852e-016 -20   XYZ
    dof rx rz
    limits (-45.0 90.0)
           (-20.0 70.0)
  end
  begin
     id 10 
     name rtoes
     direction -1.53469e-011 -4.21728e-011 1   
     length 1.18261   
     axis -90 -7.62852e-016 -20   XYZ
    dof rx
    limits (-90.0 20.0)
  end
  begin
     id 11 
     name lowerback
     direction 0.0242088 0.999437 0.0232389   
     length 2.1561   
     axis 0 0 0   XYZ
    dof rx ry rz
    limits (-20.0 45.0)
           (-30.0 30.0)
           (-30.0 30.0)
  end
  begin
     id 12 
     name upperback
     direction -0.0356893 0.999013 -0.0264323   
     length 2.14431   
     axis 0 0 0   XYZ
    dof rx ry rz
    limits (-20.0 45.0)
           (-30.0 30.0)
           (-30.0 30.0)
  end
  begin
     id 13 
     name thorax
     direction -0.0472163 0.998194 -0.0371284   
     length 2.16169   
     axis 0 0 0   XYZ
    dof rx ry rz
    limits (-20.0 45.0)
           (-30.0 30.0)
           (-30.0 30.0)
  end
  begin
     id 14 
     name lowerneck
     direction 0.00863244 0.999921 0.00911972   
     length 1.58651   
     axis 0 0 0   XYZ
    dof rx ry rz
    limits (-20.0 45.0)
           (-30.0 30.0)
           (-30.0 30.0)
  end
  begin
     id 15 
     name upperneck
     direction 0.149523 0.979068 -0.138086   
     length 1.57486   
     axis 0 0 0   XYZ
    dof rx ry rz
    limits (-20.0 45.0)
           (-30.0 30.0)
           (-30.0 30.0)
  end
  begin
     id 16
     name head
     direction 0.0445219 0.997708 -0.0509576  
     length 1.6019  
     axis 0 0 0   XYZ
    dof rx ry rz
    limits (-20.0 45.0)
           (-30.0 30.0)
           (-30.0 30.0)
  end
  begin
     id 17 
     name lclavicle
     direction 0.911271 0.381667 -0.154644  
     length 3.80848  
     axis 0 0 0   XYZ
    dof ry rz
    limits (-20.0 10.0)
           (0.0 20.0)
  end
  begin
     id 18 
     name lhumerus
     direction 1 -4.49003e-011 2.1308e-027   
     length 5.19069   
     axis 180 -30 -90   XYZ
    dof rx ry rz
    limits (-60.0 90.0)
           (-90.0 90.0)
           (-90.0 90.0)
  end
  begin
     id 19
     name lradius
     direction 1 -4.48914e-011 4.01554e-027   
     length 3.30016   
     axis 180 -30 -90   XYZ
    dof rx
    limits (-10.0 170.0)
  end
  begin
     id 20
     name lwrist
     direction 1 -4.49003e-011 1.1934e-026   
     length 1.65008   
     axis -8.46377e-015 90 90   XYZ
    dof ry
    limits (-180.0 0.0)
 end
  begin
     id 21 
     name lhand
     direction 1 -4.49034e-011 2.38659e-026   
     length 0.707698   
     axis -1.52313e-014 90 90   XYZ
    dof rx rz
    limits (-90.0 90.0)
           (-45.0 45.0)
  end
  begin
     id 22 
     name lfingers
     direction 1 -4.48691e-011 4.77775e-026   
     length 0.570564   
     axis -3.04623e-014 90 90   XYZ
    dof rx
    limits (0.0 90.0)
  end
  begin
     id 23
     name lthumb
     direction 0.707107 -6.34832e-011 0.707107   
     length 0.819219   
     axis -90 45 -1.62303e-014   XYZ
    dof rx rz
    limits (-45.0 45.0)
           (-45.0 45.0)
  end
  begin
     id 24 
     name rclavicle
     direction -0.815579 0.573708 -0.0754329   
     length 3.54371  
     axis 0 0 0   XYZ 
    dof ry rz
    limits (-10.0 20.0)
           (-20.0 0.0)
  end
  begin
     id 25 
     name rhumerus
     direction -1 -4.48956e-011 3.05351e-028  
     length 5.23924   
     axis 180 30 90   XYZ
    dof rx ry rz
    limits (-90.0 60.0)
           (-90.0 90.0)
           (-90.0 90.0)
  end
  begin
     id 26 
     name rradius
     direction -1 -4.49013e-011 3.53849e-027   
     length 3.32953   
     axis 180 30 90   XYZ
    dof rx
    limits (-10.0 170.0)
  end
  begin
     id 27 
     name rwrist
     direction -1 -4.48901e-011 1.19374e-026   
     length 1.66477   
     axis -8.46377e-015 -90 -90   XYZ
    dof ry
    limits (-180.0 0.0)
  end
  begin
     id 28
     name rhand
     direction -1 -4.48877e-011 2.38764e-026   
     length 0.607414   
     axis -1.52313e-014 -90 -90   XYZ
    dof rx rz
    limits (-90.0 90.0)
           (-45.0 45.0)
  end
  begin
     id 29
     name rfingers
     direction -1 -4.48882e-011 4.77521e-026   
     length 0.489712   
     axis -3.04623e-014 -90 -90   XYZ
    dof rx
    limits (0.0 90.0)
  end
  begin
     id 30
     name rthumb
     direction -0.707107 -6.34974e-011 0.707107   
     length 0.703132   
     axis -90 -45 1.62303e-014   XYZ
    dof rx rz
    limits (-45.0 45.0)
           (-45.0 45.0)
  end
:hierarchy
  begin
    root lhipjoint rhipjoint lowerback
    lhipjoint lfemur
    lfemur ltibia
    ltibia lfoot
    lfoot ltoes
    rhipjoint rfemur
    rfemur rtibia
    rtibia rfoot
    rfoot rtoes
    lowerback upperback
    upperback thorax
    thorax lowerneck lclavicle rclavicle
    lowerneck upperneck
    upperneck head
    lclavicle lhumerus
    lhumerus lradius
    lradius lwrist
    lwrist lhand lthumb
    lhand lfingers
    rclavicle rhumerus
    rhumerus rradius
    rradius rwrist
    rwrist rhand rthumb
    rhand rfingers
  end

#!OML:ASF E:\VariousWalksJay\Project 1\Capture day 1\Session 1\Actor2.ASF
:FULLY-SPECIFIED
:DEGREES
233
root 28.6147 15.9059 -25.6875 0.130426 -44.7928 2.35105
lowerback 23.0845 -4.80541 2.52885
upperback 18.1857 -6.62646 -5.44411
thorax 6.57535 -3.10848 -6.28088
lowerneck 6.175 2.67044 1.70839
upperneck -5.03255 3.77752 0.943037
head -2.65295 1.81024 -0.149434
rclavicle -1.43125e-014 -2.62396e-014
rhumerus -44.3712 23.5474 -91.4636
rradius 106.089
rwrist 19.2166
rhand -38.8361 -3.28599
rfingers 7.12502
rthumb -11.8456 -32.9309
lclavicle -1.43125e-014 -2.62396e-014
lhumerus 41.4396 -31.1346 46.8785
lradius 84.443
lwrist 56.91
lhand -38.6008 15.0278
lfingers 7.12502
lthumb -11.6187 44.6857
rfemur -63.7458 4.52643 26.8953
rtibia 32.896
rfoot -16.984 -8.78095
rtoes -26.6774
lfemur -30.6573 28.2404 -36.078
ltibia 58.3968
lfoot -31.4288 3.58091
ltoes -12.3283
234
root 28.5845 15.9077 -25.6365 0.0789914 -44.6385 2.42314
lowerback 22.7803 -4.86147 2.45387
upperback 18.0488 -6.70004 -5.47628
thorax 6.54887 -3.14883 -6.27008
lowerneck 6.06714 2.7178 1.72399
upperneck -4.82735 3.83517 0.936375
head -2.56307 1.84159 -0.152369
rclavicle 1.43125e-014 -3.18055e-015
rhumerus -44.7677 23.493 -91.7088
rradius 106.072
rwrist 19.2402
rhand -38.7528 -3.22635
rfingers 7.12502
rthumb -11.7653 -32.8759
lclavicle 1.43125e-014 -3.18055e-015
lhumerus 40.8717 -31.3579 47.2473
lradius 84.426
lwrist 56.8713
lhand -38.6701 15.0111
lfingers 7.12502
lthumb -11.6855 44.6652
rfemur -63.2435 4.31227 27.1517
rtibia 32.4603
rfoot -16.9522 -8.78292
rtoes -26.6418
lfemur -30.4085 28.5989 -36.0346
ltibia 58.4651
lfoot -31.4021 3.11286
ltoes -12.7983
235
root 28.5542 15.9099 -25.5851 0.0470488 -44.4778 2.49393
lowerback 22.4704 -4.91698 2.38753
upperback 17.9068 -6.77109 -5.50393
thorax 6.52047 -3.18718 -6.26012
lowerneck 5.95018 2.76271 1.74639
upperneck -4.61007 3.88956 0.929259
head -2.46767 1.87136 -0.156021
rclavicle 3.02153e-014 -1.03368e-014
rhumerus -45.1699 23.419 -91.9529
rradius 106.069
rwrist 19.2633
rhand -38.6867 -3.19216
rfingers 7.12502
rthumb -11.7015 -32.8454
lclavicle 3.02153e-014 -1.03368e-014
lhumerus 40.3075 -31.6001 47.6268
lradius 84.4013
lwrist 56.8244
lhand -38.7159 15.0077
lfingers 7.12502
lthumb -11.7297 44.6593
rfemur -62.7573 4.09819 27.3893
rtibia 32.0308
rfoot -16.9112 -8.78592
rtoes -26.5426
lfemur -30.1687 28.9232 -35.9954
ltibia 58.5202
lfoot -31.3817 2.65815
ltoes -13.2255
236
root 28.524 15.912 -25.5338 0.0442919 -44.2979 2.55173
lowerback 22.1621 -4.98315 2.3328
upperback 17.7591 -6.85336 -5.52382
thorax 6.48395 -3.2306 -6.24567
lowerneck 5.81621 2.81203 1.7609
upperneck -4.36938 3.94851 0.926549
head -2.36196 1.90374 -0.156362
rclavicle -3.33958e-014 3.97569e-015
rhumerus -45.5713 23.349 -92.1965
rradius 106.073
rwrist 19.2856
rhand -38.607 -3.13763
rfingers 7.12502
rthumb -11.6246 -32.7952
lclavicle -3.33958e-014 3.97569e-015
lhumerus 39.7496 -31.8399 47.9904
lradius 84.3722
lwrist 56.79
lhand -38.8016 14.9758
lfingers 7.12502
lthumb -11.8123 44.6226
rfemur -62.292 3.88124 27.6121
rtibia 31.6064
rfoot -16.8562 -8.81161
rtoes -26.4518
lfemur -29.9431 29.2053 -35.9534
ltibia 58.5607
lfoot -31.3605 2.21192
ltoes -13.5988
237
root 28.4938 15.9148 -25.4806 0.0356147 -44.1166 2.62651
lowerback 21.8529 -5.05448 2.28576
upperback 17.6098 -6.94113 -5.55027
thorax 6.44514 -3.27568 -6.24217
lowerneck 5.67232 2.86386 1.76737
upperneck -4.10202 4.00991 0.935272
head -2.24649 1.93742 -0.151149
rclavicle 2.22639e-014 3.10104e-014
rhumerus -45.9773 23.2771 -92.4463
rradius 106.081
rwrist 19.3094
rhand -38.5308 -3.09524
rfingers 7.12502
rthumb -11.5512 -32.7569
lclavicle 2.22639e-014 3.10104e-014
lhumerus 39.208 -32.0737 48.3208
lradius 84.3414
lwrist 56.7825
lhand -38.8282 14.9902
lfingers 7.12502
lthumb -11.8379 44.6356
rfemur -61.8317 3.65424 27.8137
rtibia 31.1918
rfoot -16.8054 -8.83159
rtoes -26.3613
lfemur -29.7001 29.4662 -35.9291
ltibia 58.5745
lfoot -31.3518 1.7857
ltoes -13.9286
238
root 28.4638 15.918 -25.4264 0.0378885 -43.931 2.69875
lowerback 21.5461 -5.12995 2.25168
upperback 17.4573 -7.03224 -5.57526
thorax 6.40105 -3.3214 -6.24369
lowerneck 5.51802 2.91952 1.76966
upperneck -3.8043 4.07537 0.949864
head -2.11992 1.97336 -0.142798
rclavicle -2.38542e-014 -4.13472e-014
rhumerus -46.3833 23.2062 -92.6972
rradius 106.088
rwrist 19.3302
rhand -38.4583 -3.06072
rfingers 7.12502
rthumb -11.4813 -32.7263
lclavicle -2.38542e-014 -4.13472e-014
lhumerus 38.6664 -32.3161 48.6688
lradius 84.2942
lwrist 56.7603
lhand -38.8184 15.0157
lfingers 7.12502
lthumb -11.8285 44.6616
rfemur -61.3837 3.42228 28.0082
rtibia 30.7906
rfoot -16.7692 -8.8528
rtoes -26.2801
lfemur -29.4504 29.7065 -35.9075
ltibia 58.5648
lfoot -31.3475 1.37649
ltoes -14.2286
239
root 28.4336 15.9215 -25.3704 0.0339539 -43.7614 2.78267
lowerback 21.2411 -5.20473 2.2265
upperback 17.3056 -7.12174 -5.61077
thorax 6.35618 -3.36501 -6.26249
lowerneck 5.34299 2.97559 1.78764
upperneck -3.46653 4.14083 0.959778
head -1.97675 2.0097 -0.137489
rclavicle 1.11319e-014 7.4743e-014
rhumerus -46.7827 23.1392 -92.955
rradius 106.089
rwrist 19.345
rhand -38.3476 -2.98087
rfingers 7.12502
rthumb -11.3745 -32.6524
lclavicle 1.11319e-014 7.4743e-014
lhumerus 38.1322 -32.5691 49.0031
lradius 84.2357
lwrist 56.7346
lhand -38.7892 15.0368
lfingers 7.12502
lthumb -11.8004 44.6844
rfemur -60.9418 3.18653 28.2004
rtibia 30.4113
rfoot -16.7532 -8.86336
rtoes -26.1686
lfemur -29.1826 29.9462 -35.897
ltibia 58.5291
lfoot -31.3497 0.980223
ltoes -14.4924
240
root 28.4031 15.9256 -25.3126 0.0234886 -43.6169 2.87684
lowerback 20.9319 -5.26258 2.22397
upperback 17.162 -7.18731 -5.66048
thorax 6.32335 -3.39336 -6.31574
lowerneck 5.14302 3.01883 1.85166
upperneck -3.09676 4.19045 0.96251
head -1.81852 2.03816 -0.140533
rclavicle -2.54444e-014 1.43125e-014
rhumerus -47.1634 23.0289 -93.22
rradius 106.081
rwrist 19.3586
rhand -38.1947 -2.87088
rfingers 7.12502
rthumb -11.227 -32.5505
lclavicle -2.54444e-014 1.43125e-014
lhumerus 37.6404 -32.8468 49.3275
lradius 84.1588
lwrist 56.693
lhand -38.7487 15.0475
lfingers 7.12502
lthumb -11.7613 44.6973
rfemur -60.5038 2.96068 28.388
rtibia 30.0548
rfoot -16.7571 -8.86639
rtoes -26.1058
lfemur -28.8999 30.1947 -35.8942
ltibia 58.4738
lfoot -31.3528 0.592723
ltoes -14.7353
241
root 28.3725 15.9297 -25.2534 0.00743992 -43.4881 2.97452
lowerback 20.6323 -5.3136 2.23301
upperback 17.0226 -7.2432 -5.71661
thorax 6.29097 -3.41564 -6.38421
lowerneck 4.92349 3.05562 1.94513
upperneck -2.69515 4.23114 0.949691
head -1.64668 2.06271 -0.151997
rclavicle -1.31993e-013 2.54444e-014
rhumerus -47.5267 22.9138 -93.4828
rradius 106.061
rwrist 19.3625
rhand -38.0239 -2.75651
rfingers 7.12502
rthumb -11.0623 -32.445
lclavicle -1.31993e-013 2.54444e-014
lhumerus 37.1721 -33.1333 49.6286
lradius 84.0749
lwrist 56.6587
lhand -38.6856 15.0645
lfingers 7.12502
lthumb -11.7005 44.7178
rfemur -60.0693 2.73013 28.5838
rtibia 29.7231
rfoot -16.7859 -8.85955
rtoes -26.0325
lfemur -28.6016 30.443 -35.8896
ltibia 58.4062
lfoot -31.3518 0.212886
ltoes -14.9696
242
root 28.3416 15.9339 -25.1932 -0.00781873 -43.3777 3.07561
lowerback 20.3344 -5.35661 2.25206
upperback 16.8888 -7.28825 -5.7812
thorax 6.26467 -3.43111 -6.47029
lowerneck 4.67518 3.08847 2.07397
upperneck -2.25946 4.26597 0.916781
head -1.45897 2.08503 -0.174027
rclavicle 2.8625e-014 -2.70347e-014
rhumerus -47.8667 22.7924 -93.7444
rradius 106.028
rwrist 19.3564
rhand -37.8519 -2.66374
rfingers 7.12502
rthumb -10.8964 -32.361
lclavicle 2.8625e-014 -2.70347e-014
lhumerus 36.7209 -33.415 49.9163
lradius 83.9854
lwrist 56.6259
lhand -38.6464 15.0559
lfingers 7.12502
lthumb -11.6627 44.7113
rfemur -59.644 2.50395 28.7838
rtibia 29.413
rfoot -16.8246 -8.84679
rtoes -26.0119
lfemur -28.3019 30.6911 -35.8857
ltibia 58.3343
lfoot -31.3431 -0.163658
ltoes -15.1958
243
root 28.3106 15.9383 -25.1322 -0.0128484 -43.28 3.16274
lowerback 20.0449 -5.39448 2.28436
upperback 16.7596 -7.32562 -5.84403
thorax 6.24019 -3.44182 -6.56323
lowerneck 4.4114 3.11573 2.21943
upperneck -1.80326 4.2923 0.870265
head -1.26301 2.10366 -0.201756
rclavicle 3.33958e-014 -7.95139e-015
rhumerus -48.1886 22.6763 -93.9959
rradius 105.989
rwrist 19.3386
rhand -37.6533 -2.56301
rfingers 7.12502
rthumb -10.7049 -32.2703
lclavicle 3.33958e-014 -7.95139e-015
lhumerus 36.287 -33.7012 50.179
lradius 83.8987
lwrist 56.6079
lhand -38.6745 14.9884
lfingers 7.12502
lthumb -11.6898 44.6422
rfemur -59.2221 2.27376 29.0046
rtibia 29.1178
rfoot -16.873 -8.826
rtoes -25.9498
lfemur -28.0011 30.9357 -35.8662
ltibia 58.2636
lfoot -31.324 -0.544934
ltoes -15.4143
244
root 28.2794 15.9428 -25.0712 -0.00577295 -43.1834 3.23976
lowerback 19.769 -5.43355 2.31233
upperback 16.6316 -7.36554 -5.89904
thorax 6.21214 -3.45499 -6.64387
lowerneck 4.13707 3.14527 2.35777
upperneck -1.33396 4.31974 0.814756
head -1.06278 2.12336 -0.23023
rclavicle -7.79236e-014 -1.90833e-014
rhumerus -48.4935 22.5835 -94.229
rradius 105.941
rwrist 19.3085
rhand -37.4716 -2.48972
rfingers 7.12502
rthumb -10.5296 -32.206
lclavicle -7.79236e-014 -1.90833e-014
lhumerus 35.8554 -33.959 50.4307
lradius 83.8145
lwrist 56.6165
lhand -38.7532 14.8985
lfingers 7.12502
lthumb -11.7657 44.548
rfemur -58.8077 2.04525 29.23
rtibia 28.8303
rfoot -16.9161 -8.81882
rtoes -25.9525
lfemur -27.7084 31.1677 -35.8351
ltibia 58.1994
lfoot -31.2917 -0.931662
ltoes -15.621
245
root 28.2476 15.9475 -25.0094 0.0140957 -43.1099 3.29824
lowerback 19.5042 -5.46828 2.3342
upperback 16.5029 -7.40131 -5.94278
thorax 6.18093 -3.4677 -6.70869
lowerneck 3.86293 3.17729 2.48143
upperneck -0.856189 4.34885 0.749185
head -0.861826 2.14425 -0.258829
rclavicle 2.54444e-014 -6.83819e-014
rhumerus -48.7971 22.525 -94.4424
rradius 105.894
rwrist 19.2667
rhand -37.3211 -2.4475
rfingers 7.12502
rthumb -10.3844 -32.1711
lclavicle 2.54444e-014 -6.83819e-014
lhumerus 35.3934 -34.2077 50.7166
lradius 83.7281
lwrist 56.6183
lhand -38.91 14.7335
lfingers 7.12502
lthumb -11.9168 44.3744
rfemur -58.3903 1.82214 29.4832
rtibia 28.5464
rfoot -16.9564 -8.79926
rtoes -25.9271
lfemur -27.4158 31.4072 -35.7842
ltibia 58.1395
lfoot -31.2549 -1.3187
ltoes -15.8294
246
root 28.2156 15.9522 -24.9482 0.0515733 -43.0264 3.34718
lowerback 19.2525 -5.51262 2.33212
upperback 16.3701 -7.45249 -5.96901
thorax 6.14141 -3.49167 -6.73688
lowerneck 3.60488 3.21855 2.56083
upperneck -0.393469 4.3889 0.691262
head -0.671021 2.17035 -0.278195
rclavicle -1.59028e-014 -3.49861e-014
rhumerus -49.1014 22.5172 -94.6335
rradius 105.848
rwrist 19.2135
rhand -37.213 -2.43733
rfingers 7.12502
rthumb -10.2801 -32.1661
lclavicle -1.59028e-014 -3.49861e-014
lhumerus 34.8868 -34.4302 51.0454
lradius 83.6437
lwrist 56.6115
lhand -39.0539 14.6001
lfingers 7.12502
lthumb -12.0556 44.2329
rfemur -57.987 1.59876 29.7358
rtibia 28.2612
rfoot -16.9865 -8.79849
rtoes -25.8908
lfemur -27.1391 31.6258 -35.7249
ltibia 58.0857
lfoot -31.2069 -1.71173
ltoes -16.0146
247
root 28.1832 15.9573 -24.8868 0.0898863 -42.9398 3.40731
lowerback 19.0083 -5.56334 2.3025
upperback 16.2348 -7.51546 -5.98824
thorax 6.09799 -3.52462 -6.73941
lowerneck 3.37251 3.2634 2.60735
upperneck 0.0410378 4.43384 0.639937
head -0.495541 2.19831 -0.290922
rclavicle -3.33958e-014 2.70347e-014
rhumerus -49.4128 22.5451 -94.8113
rradius 105.806
rwrist 19.1535
rhand -37.1177 -2.39566
rfingers 7.12502
rthumb -10.1882 -32.129
lclavicle -3.33958e-014 2.70347e-014
lhumerus 34.3505 -34.6455 51.3877
lradius 83.5657
lwrist 56.5966
lhand -39.2238 14.4487
lfingers 7.12502
lthumb -12.2194 44.0718
rfemur -57.5943 1.3683 29.98
rtibia 27.9746
rfoot -17.0069 -8.80011
rtoes -25.8671
lfemur -26.8666 31.8286 -35.6748
ltibia 58.0296
lfoot -31.153 -2.10656
ltoes -16.1841
